<svg version="1.1" id="Laag_1" xmlns="http://www.w3.org/2000/svg" x="0" y="0" viewBox="0 0 114.67 27.67" xml:space="preserve"><style>.st0{fill:#fff}</style><path class="st0" d="M4 1.33c.11.01.21.04.3.08s.17.1.26.18c.07.08.16.18.27.31L15.3 15.24c-.04-.32-.06-.64-.08-.94-.01-.31-.02-.6-.02-.86V1.31h3.27v19.95h-1.92c-.29 0-.54-.05-.73-.14-.19-.09-.38-.26-.57-.5L4.83 7.33c.03.29.05.59.06.88.01.29.02.55.02.79v12.25H1.64V1.31h1.95c.16 0 .3 0 .41.02zM29.84 18.26c.72 0 1.36-.12 1.92-.36.57-.24 1.04-.57 1.43-1.01.39-.43.69-.96.9-1.57.21-.62.31-1.31.31-2.07V1.31h3.71v11.95c0 1.19-.19 2.28-.57 3.29a7.353 7.353 0 01-1.65 2.61c-.72.73-1.59 1.3-2.61 1.71-1.02.41-2.17.61-3.45.61-1.28 0-2.43-.2-3.45-.61s-1.89-.98-2.6-1.71c-.71-.73-1.26-1.6-1.64-2.61-.38-1.01-.57-2.1-.57-3.29V1.31h3.71v11.93c0 .76.1 1.45.31 2.07.21.62.5 1.14.89 1.58.39.44.86.77 1.43 1.01s1.21.36 1.93.36zM56.97 1.31v3.05h-6v16.9h-3.71V4.35h-6.03V1.31h15.74zM63.78 13.57v7.79h-3.71V1.42h6.08c1.36 0 2.53.14 3.5.42.97.28 1.77.67 2.39 1.18.62.51 1.08 1.11 1.37 1.81.29.7.43 1.48.43 2.32 0 .67-.1 1.31-.3 1.9-.2.6-.48 1.14-.86 1.63-.37.49-.83.92-1.38 1.28-.55.37-1.17.66-1.87.88.47.27.87.65 1.21 1.15l4.99 7.37h-3.34c-.32 0-.6-.06-.82-.19-.23-.13-.42-.31-.57-.55l-4.19-6.39c-.16-.24-.33-.41-.52-.51-.19-.1-.47-.15-.83-.15h-1.58zm0-2.66h2.32c.7 0 1.31-.09 1.83-.26s.95-.42 1.28-.72c.34-.31.59-.67.75-1.1.17-.42.25-.89.25-1.39 0-1.01-.33-1.79-1-2.33-.67-.54-1.69-.81-3.06-.81h-2.37v6.61zM98.22 21.36h-2.87c-.32 0-.59-.08-.79-.24-.21-.16-.36-.36-.45-.6l-1.49-4.07h-8.26l-1.49 4.07c-.07.21-.22.4-.43.58-.22.17-.48.26-.79.26h-2.88l7.84-19.95h3.79l7.82 19.95zm-12.91-7.53h6.36L89.24 7.2c-.11-.29-.23-.64-.37-1.04-.13-.4-.26-.83-.39-1.3-.13.47-.26.91-.38 1.31s-.25.76-.37 1.06l-2.42 6.6zM105.04 18.19h7.99v3.06h-11.7V1.31h3.71v16.88z"/><path fill="#f69c2a" d="M1.64 23.49h111.39v2.87H1.64z"/></svg>